<?xml version="1.0" encoding="UTF-8"?>
<svg width="256px" height="256px" viewBox="0 0 256 256" version="1.1" xmlns="http://www.w3.org/2000/svg" xmlns:xlink="http://www.w3.org/1999/xlink">
    <!-- Generator: Sketch 63.1 (92452) - https://sketch.com -->
    <title>Group 2</title>
    <desc>Created with Sketch.</desc>
    <g id="Checkout" stroke="none" stroke-width="1" fill="none" fill-rule="evenodd">
        <g id="empty-cart" transform="translate(-1064.000000, -552.000000)">
            <g id="Group-2" transform="translate(1064.000000, 552.000000)">
                <g id="Group">
                    <rect id="Rectangle" fill="#F6F6F6" x="0" y="0" width="256" height="256" rx="3"></rect>
                    <g id="fallen-cone-copy-2" transform="translate(9.000000, 90.000000)">
                        <line x1="0.5" y1="66.5" x2="236.5" y2="66.5" id="Path-6" stroke="#000000"></line>
                        <g id="cone" transform="translate(22.000000, 0.000000)">
                            <g id="bottom" transform="translate(0.000000, 55.993131)" fill="#FF6700" stroke="#212121">
                                <path d="M1.25913987e-06,19.3485466 C1.25913987e-06,21.4557638 34.7523399,36.2442505 42.4055673,36.2442505 C50.0587947,36.2442505 82.8468435,21.665663 82.8468435,19.3485466 C82.8468435,18.965352 82.8468435,17.0456611 82.8468435,13.5894739 C59.4480571,8.52982464 45.9676317,6 42.4055673,6 C38.589563,6 24.4543743,8.52982464 1.25913987e-06,13.5894739 C1.25913987e-06,17.1556791 1.25913987e-06,19.07537 1.25913987e-06,19.3485466 Z" id="Path-5"></path>
                                <path d="M-4.97379915e-14,13.3485466 C-4.97379915e-14,15.4557638 34.7523399,30.2442505 42.4055673,30.2442505 C50.0587947,30.2442505 82.8468435,15.665663 82.8468435,13.3485466 C82.8468435,11.0314301 49.5113483,-9.9475983e-14 42.4055673,-9.9475983e-14 C35.2997863,-9.9475983e-14 -4.97379915e-14,11.2413293 -4.97379915e-14,13.3485466 Z" id="Path-5"></path>
                            </g>
                            <g id="top" transform="translate(16.820950, 0.000000)">
                                <path d="M-4.54747351e-13,68.6061271 C5.35526885,76.6232708 13.8834745,80.6318426 25.5846168,80.6318426 C37.2857592,80.6318426 45.8139648,76.6232708 51.1692337,68.6061271 C39.2574236,22.868709 30.729218,0 25.5846168,0 C20.4400156,0 11.91181,22.868709 -4.54747351e-13,68.6061271 Z" id="Path-4" stroke="#212121" fill="#FF6700"></path>
                                <path d="M38.070288,26.631799 C37.4466818,24.6598019 36.6960027,22.4335027 36.1442448,20.8486611 C35.6888121,19.5404994 35.1504207,17.9831751 34.5290705,16.176688 C33.3281821,16.3820751 30.3466976,16.496604 25.5846168,16.5202748 C20.8225361,16.5439456 17.8573497,16.4294167 16.6890575,16.176688 C16.0405913,17.9520972 15.4787307,19.5094215 15.0034756,20.8486611 C14.4772333,22.3315798 13.7205879,24.366525 13.1273395,26.2432968 C12.7361208,27.4809375 38.4141311,27.7191162 38.070288,26.631799 Z" id="Path-4" stroke="#FFFFFF" fill="#FFFFFF"></path>
                                <path d="M47.5050699,58.5111703 C46.8814637,56.5391732 45.9240338,52.9142116 45.5070202,51.3242998 C45.177583,50.068283 44.7371181,48.5260698 44.1856254,46.69766 C36.2703233,47.7092839 29.9316319,48.2269312 25.1695512,48.250602 C20.4074705,48.2742728 14.3363954,47.7566255 6.95632615,46.69766 C6.38355212,48.777354 5.90278444,50.4876641 5.51402313,51.8285906 C4.99726888,53.6109938 4.25587258,56.7740205 3.66262423,58.6507924 C3.46982593,59.2607198 14.3496484,62.4625416 25.5846168,62.4523148 C37.1472044,62.4416898 47.6794621,59.0626417 47.5050699,58.5111703 Z" id="Path-4" stroke="#FFFFFF" fill="#FFFFFF"></path>
                            </g>
                        </g>
                        <g id="cone-copy" transform="translate(176.500000, 64.500000) rotate(115.000000) translate(-176.500000, -64.500000) translate(135.000000, 18.000000)">
                            <g id="bottom" transform="translate(0.000000, 55.993131)" fill="#FF6700" stroke="#212121">
                                <path d="M1.25913987e-06,19.3485466 C1.25913987e-06,21.4557638 34.7523399,36.2442505 42.4055673,36.2442505 C50.0587947,36.2442505 82.8468435,21.665663 82.8468435,19.3485466 C82.8468435,18.965352 82.8468435,17.0456611 82.8468435,13.5894739 C59.4480571,8.52982464 45.9676317,6 42.4055673,6 C38.589563,6 24.4543743,8.52982464 1.25913987e-06,13.5894739 C1.25913987e-06,17.1556791 1.25913987e-06,19.07537 1.25913987e-06,19.3485466 Z" id="Path-5"></path>
                                <path d="M-4.97379915e-14,13.3485466 C-4.97379915e-14,15.4557638 34.7523399,30.2442505 42.4055673,30.2442505 C50.0587947,30.2442505 82.8468435,15.665663 82.8468435,13.3485466 C82.8468435,11.0314301 49.5113483,-9.9475983e-14 42.4055673,-9.9475983e-14 C35.2997863,-9.9475983e-14 -4.97379915e-14,11.2413293 -4.97379915e-14,13.3485466 Z" id="Path-5"></path>
                            </g>
                            <g id="top" transform="translate(16.820950, 0.000000)">
                                <path d="M-4.54747351e-13,68.6061271 C5.35526885,76.6232708 13.8834745,80.6318426 25.5846168,80.6318426 C37.2857592,80.6318426 45.8139648,76.6232708 51.1692337,68.6061271 C39.2574236,22.868709 30.729218,0 25.5846168,0 C20.4400156,0 11.91181,22.868709 -4.54747351e-13,68.6061271 Z" id="Path-4" stroke="#212121" fill="#FF6700"></path>
                                <path d="M38.070288,26.631799 C37.4466818,24.6598019 36.6960027,22.4335027 36.1442448,20.8486611 C35.6888121,19.5404994 35.1504207,17.9831751 34.5290705,16.176688 C33.3281821,16.3820751 30.3466976,16.496604 25.5846168,16.5202748 C20.8225361,16.5439456 17.8573497,16.4294167 16.6890575,16.176688 C16.0405913,17.9520972 15.4787307,19.5094215 15.0034756,20.8486611 C14.4772333,22.3315798 13.7205879,24.366525 13.1273395,26.2432968 C12.7361208,27.4809375 38.4141311,27.7191162 38.070288,26.631799 Z" id="Path-4" stroke="#FFFFFF" fill="#FFFFFF"></path>
                                <path d="M47.5050699,58.5111703 C46.8814637,56.5391732 45.9240338,52.9142116 45.5070202,51.3242998 C45.177583,50.068283 44.7371181,48.5260698 44.1856254,46.69766 C36.2703233,47.7092839 29.9316319,48.2269312 25.1695512,48.250602 C20.4074705,48.2742728 14.3363954,47.7566255 6.95632615,46.69766 C6.38355212,48.777354 5.90278444,50.4876641 5.51402313,51.8285906 C4.99726888,53.6109938 4.25587258,56.7740205 3.66262423,58.6507924 C3.46982593,59.2607198 14.3496484,62.4625416 25.5846168,62.4523148 C37.1472044,62.4416898 47.6794621,59.0626417 47.5050699,58.5111703 Z" id="Path-4" stroke="#FFFFFF" fill="#FFFFFF"></path>
                            </g>
                        </g>
                    </g>
                </g>
                <text id="Image-Coming-Soon" font-family="Lato-Bold, Lato" font-size="13" font-weight="bold" letter-spacing="0.0828430429" fill="#FF6700">
                    <tspan x="70" y="53">Image Coming Soon</tspan>
                </text>
            </g>
        </g>
    </g>
</svg>